# xmcd CD database file
#
# Track frame offsets:
#	150
#	31658
#	53424
#	86656
#	117628
#	137795
#	163624
#	183573
#	201779
#	227022
#	238732
#
# Disc length: 3588 seconds
#
# Revision: 0
# Processed by: cddbd v1.5.2PL0 Copyright (c) Steve Scherf et al.
# Submitted via: CDex 1.51
#
DISCID=8f0e020b
DTITLE=Matthias Bätzel - Monk's Mood
DYEAR=1900
DGENRE=Jazz
TTITLE0=Work
TTITLE1=Ugly Beauty
TTITLE2=Monk's Mood
TTITLE3=Pannonica
TTITLE4=Green Chimneys
TTITLE5=Ruby, My Dear
TTITLE6=Off Minor
TTITLE7=Humph
TTITLE8=Bolivar Blues
TTITLE9=Crespuscule With Nellie
TTITLE10=Japanese Folksong
EXTD=
EXTT0=
EXTT1=
EXTT2=
EXTT3=
EXTT4=
EXTT5=
EXTT6=
EXTT7=
EXTT8=
EXTT9=
EXTT10=
PLAYORDER=
